<mxfile host="app.diagrams.net" agent="Mozilla/5.0 (Windows NT 10.0; Win64; x64) AppleWebKit/537.36 (KHTML, like Gecko) Chrome/137.0.0.0 Safari/537.36" version="27.1.4">
  <diagram name="第 1 页" id="PxNDg2cY9GIgu7gtpZ4i">
    <mxGraphModel dx="2505" dy="874" grid="1" gridSize="10" guides="1" tooltips="1" connect="1" arrows="1" fold="1" page="1" pageScale="1" pageWidth="827" pageHeight="1169" math="0" shadow="0">
      <root>
        <mxCell id="0" />
        <mxCell id="1" parent="0" />
        <mxCell id="-atE9gH2WMRQZiepeEqc-26" value="" style="group" parent="1" vertex="1" connectable="0">
          <mxGeometry x="340" y="170" width="560" height="560" as="geometry" />
        </mxCell>
        <mxCell id="7mek623oFP9vRKAEX3To-1" value="" style="whiteSpace=wrap;html=1;aspect=fixed;" parent="-atE9gH2WMRQZiepeEqc-26" vertex="1">
          <mxGeometry width="560" height="560" as="geometry" />
        </mxCell>
        <mxCell id="7mek623oFP9vRKAEX3To-4" value="qr_dec_top.v" style="text;html=1;align=center;verticalAlign=middle;whiteSpace=wrap;rounded=0;" parent="-atE9gH2WMRQZiepeEqc-26" vertex="1">
          <mxGeometry x="14" width="60" height="30" as="geometry" />
        </mxCell>
        <mxCell id="7mek623oFP9vRKAEX3To-2" value="" style="rounded=0;whiteSpace=wrap;html=1;" parent="1" vertex="1">
          <mxGeometry x="-290" y="170" width="530" height="560" as="geometry" />
        </mxCell>
        <mxCell id="7mek623oFP9vRKAEX3To-9" value="" style="endArrow=classic;html=1;rounded=0;entryX=0;entryY=0.25;entryDx=0;entryDy=0;" parent="1" edge="1">
          <mxGeometry width="50" height="50" relative="1" as="geometry">
            <mxPoint x="245" y="210" as="sourcePoint" />
            <mxPoint x="335" y="210" as="targetPoint" />
          </mxGeometry>
        </mxCell>
        <mxCell id="7mek623oFP9vRKAEX3To-11" value="clk" style="text;html=1;align=center;verticalAlign=middle;resizable=0;points=[];autosize=1;strokeColor=none;fillColor=none;" parent="1" vertex="1">
          <mxGeometry x="250" y="180" width="40" height="30" as="geometry" />
        </mxCell>
        <mxCell id="7mek623oFP9vRKAEX3To-12" value="" style="endArrow=classic;html=1;rounded=0;entryX=0;entryY=0.25;entryDx=0;entryDy=0;" parent="1" edge="1">
          <mxGeometry width="50" height="50" relative="1" as="geometry">
            <mxPoint x="245" y="250" as="sourcePoint" />
            <mxPoint x="335" y="250" as="targetPoint" />
          </mxGeometry>
        </mxCell>
        <mxCell id="7mek623oFP9vRKAEX3To-13" value="rst" style="text;html=1;align=center;verticalAlign=middle;resizable=0;points=[];autosize=1;strokeColor=none;fillColor=none;" parent="1" vertex="1">
          <mxGeometry x="255" y="228" width="40" height="30" as="geometry" />
        </mxCell>
        <mxCell id="7mek623oFP9vRKAEX3To-14" value="" style="group" parent="1" vertex="1" connectable="0">
          <mxGeometry x="460" y="250" width="300" height="150" as="geometry" />
        </mxCell>
        <mxCell id="7mek623oFP9vRKAEX3To-5" value="" style="rounded=0;whiteSpace=wrap;html=1;" parent="7mek623oFP9vRKAEX3To-14" vertex="1">
          <mxGeometry width="300" height="150" as="geometry" />
        </mxCell>
        <mxCell id="7mek623oFP9vRKAEX3To-6" value="cordic.v" style="text;html=1;align=center;verticalAlign=middle;whiteSpace=wrap;rounded=0;" parent="7mek623oFP9vRKAEX3To-14" vertex="1">
          <mxGeometry y="10" width="60" height="30" as="geometry" />
        </mxCell>
        <mxCell id="7mek623oFP9vRKAEX3To-16" value="" style="endArrow=classic;html=1;rounded=0;entryX=0;entryY=0.25;entryDx=0;entryDy=0;" parent="1" edge="1">
          <mxGeometry width="50" height="50" relative="1" as="geometry">
            <mxPoint x="245" y="302" as="sourcePoint" />
            <mxPoint x="335" y="302" as="targetPoint" />
          </mxGeometry>
        </mxCell>
        <mxCell id="7mek623oFP9vRKAEX3To-17" value="in_c0[0:7]" style="text;html=1;align=center;verticalAlign=middle;resizable=0;points=[];autosize=1;strokeColor=none;fillColor=none;" parent="1" vertex="1">
          <mxGeometry x="235" y="280" width="80" height="30" as="geometry" />
        </mxCell>
        <mxCell id="7mek623oFP9vRKAEX3To-18" value="" style="endArrow=classic;html=1;rounded=0;entryX=0;entryY=0.25;entryDx=0;entryDy=0;" parent="1" edge="1">
          <mxGeometry width="50" height="50" relative="1" as="geometry">
            <mxPoint x="245" y="332" as="sourcePoint" />
            <mxPoint x="335" y="332" as="targetPoint" />
          </mxGeometry>
        </mxCell>
        <mxCell id="7mek623oFP9vRKAEX3To-19" value="in_c1[0:7]" style="text;html=1;align=center;verticalAlign=middle;resizable=0;points=[];autosize=1;strokeColor=none;fillColor=none;" parent="1" vertex="1">
          <mxGeometry x="235" y="310" width="80" height="30" as="geometry" />
        </mxCell>
        <mxCell id="7mek623oFP9vRKAEX3To-20" value="" style="endArrow=classic;html=1;rounded=0;entryX=0;entryY=0.25;entryDx=0;entryDy=0;" parent="1" edge="1">
          <mxGeometry width="50" height="50" relative="1" as="geometry">
            <mxPoint x="245" y="362" as="sourcePoint" />
            <mxPoint x="335" y="362" as="targetPoint" />
          </mxGeometry>
        </mxCell>
        <mxCell id="7mek623oFP9vRKAEX3To-21" value="in_c2[0:7]" style="text;html=1;align=center;verticalAlign=middle;resizable=0;points=[];autosize=1;strokeColor=none;fillColor=none;" parent="1" vertex="1">
          <mxGeometry x="235" y="340" width="80" height="30" as="geometry" />
        </mxCell>
        <mxCell id="7mek623oFP9vRKAEX3To-22" value="" style="endArrow=classic;html=1;rounded=0;entryX=0;entryY=0.25;entryDx=0;entryDy=0;" parent="1" edge="1">
          <mxGeometry width="50" height="50" relative="1" as="geometry">
            <mxPoint x="245" y="392" as="sourcePoint" />
            <mxPoint x="335" y="392" as="targetPoint" />
          </mxGeometry>
        </mxCell>
        <mxCell id="7mek623oFP9vRKAEX3To-23" value="in_c3[0:7]" style="text;html=1;align=center;verticalAlign=middle;resizable=0;points=[];autosize=1;strokeColor=none;fillColor=none;" parent="1" vertex="1">
          <mxGeometry x="235" y="370" width="80" height="30" as="geometry" />
        </mxCell>
        <mxCell id="7mek623oFP9vRKAEX3To-33" value="" style="endArrow=classic;html=1;rounded=0;exitX=0.002;exitY=0.509;exitDx=0;exitDy=0;exitPerimeter=0;entryX=1.004;entryY=0.697;entryDx=0;entryDy=0;entryPerimeter=0;" parent="1" edge="1">
          <mxGeometry width="50" height="50" relative="1" as="geometry">
            <mxPoint x="335" y="455" as="sourcePoint" />
            <mxPoint x="245" y="456" as="targetPoint" />
          </mxGeometry>
        </mxCell>
        <mxCell id="7mek623oFP9vRKAEX3To-37" value="out_r1[0:11]" style="text;html=1;align=center;verticalAlign=middle;resizable=0;points=[];autosize=1;strokeColor=none;fillColor=none;" parent="1" vertex="1">
          <mxGeometry x="255" y="430" width="90" height="30" as="geometry" />
        </mxCell>
        <mxCell id="7mek623oFP9vRKAEX3To-41" value="" style="endArrow=classic;html=1;rounded=0;entryX=0;entryY=0.25;entryDx=0;entryDy=0;" parent="1" edge="1">
          <mxGeometry width="50" height="50" relative="1" as="geometry">
            <mxPoint x="335" y="272" as="sourcePoint" />
            <mxPoint x="245" y="272" as="targetPoint" />
          </mxGeometry>
        </mxCell>
        <mxCell id="7mek623oFP9vRKAEX3To-42" value="read" style="text;html=1;align=center;verticalAlign=middle;resizable=0;points=[];autosize=1;strokeColor=none;fillColor=none;" parent="1" vertex="1">
          <mxGeometry x="250" y="250" width="50" height="30" as="geometry" />
        </mxCell>
        <mxCell id="7mek623oFP9vRKAEX3To-43" value="qr_dec_tb.v" style="text;html=1;align=center;verticalAlign=middle;whiteSpace=wrap;rounded=0;" parent="1" vertex="1">
          <mxGeometry x="110" y="180" width="60" height="30" as="geometry" />
        </mxCell>
        <mxCell id="7mek623oFP9vRKAEX3To-44" value="" style="group" parent="1" vertex="1" connectable="0">
          <mxGeometry x="460" y="470" width="300" height="150" as="geometry" />
        </mxCell>
        <mxCell id="7mek623oFP9vRKAEX3To-45" value="" style="rounded=0;whiteSpace=wrap;html=1;" parent="7mek623oFP9vRKAEX3To-44" vertex="1">
          <mxGeometry width="300" height="150" as="geometry" />
        </mxCell>
        <mxCell id="7mek623oFP9vRKAEX3To-46" value="qr_mat.v" style="text;html=1;align=center;verticalAlign=middle;whiteSpace=wrap;rounded=0;" parent="7mek623oFP9vRKAEX3To-44" vertex="1">
          <mxGeometry y="10" width="60" height="30" as="geometry" />
        </mxCell>
        <mxCell id="7mek623oFP9vRKAEX3To-47" style="edgeStyle=orthogonalEdgeStyle;rounded=0;orthogonalLoop=1;jettySize=auto;html=1;exitX=0.25;exitY=1;exitDx=0;exitDy=0;entryX=0.25;entryY=0;entryDx=0;entryDy=0;fontFamily=Helvetica;fontSize=12;fontColor=default;" parent="1" source="7mek623oFP9vRKAEX3To-5" target="7mek623oFP9vRKAEX3To-45" edge="1">
          <mxGeometry relative="1" as="geometry" />
        </mxCell>
        <mxCell id="7mek623oFP9vRKAEX3To-48" style="edgeStyle=orthogonalEdgeStyle;rounded=0;orthogonalLoop=1;jettySize=auto;html=1;exitX=0.75;exitY=1;exitDx=0;exitDy=0;entryX=0.75;entryY=0;entryDx=0;entryDy=0;fontFamily=Helvetica;fontSize=12;fontColor=default;" parent="1" source="7mek623oFP9vRKAEX3To-5" target="7mek623oFP9vRKAEX3To-45" edge="1">
          <mxGeometry relative="1" as="geometry" />
        </mxCell>
        <mxCell id="7mek623oFP9vRKAEX3To-50" value="" style="group" parent="1" vertex="1" connectable="0">
          <mxGeometry x="240" y="520" width="90" height="30" as="geometry" />
        </mxCell>
        <mxCell id="7mek623oFP9vRKAEX3To-39" value="" style="endArrow=classic;html=1;rounded=0;exitX=0.002;exitY=0.509;exitDx=0;exitDy=0;exitPerimeter=0;entryX=1.004;entryY=0.697;entryDx=0;entryDy=0;entryPerimeter=0;" parent="7mek623oFP9vRKAEX3To-50" edge="1">
          <mxGeometry width="50" height="50" relative="1" as="geometry">
            <mxPoint x="90" y="20" as="sourcePoint" />
            <mxPoint y="21" as="targetPoint" />
          </mxGeometry>
        </mxCell>
        <mxCell id="7mek623oFP9vRKAEX3To-40" value="wriet" style="text;html=1;align=center;verticalAlign=middle;resizable=0;points=[];autosize=1;strokeColor=none;fillColor=none;" parent="7mek623oFP9vRKAEX3To-50" vertex="1">
          <mxGeometry x="35" width="50" height="30" as="geometry" />
        </mxCell>
        <mxCell id="7mek623oFP9vRKAEX3To-51" value="" style="group" parent="1" vertex="1" connectable="0">
          <mxGeometry x="240" y="550" width="105" height="30" as="geometry" />
        </mxCell>
        <mxCell id="7mek623oFP9vRKAEX3To-52" value="" style="endArrow=classic;html=1;rounded=0;exitX=0.002;exitY=0.509;exitDx=0;exitDy=0;exitPerimeter=0;entryX=1.004;entryY=0.697;entryDx=0;entryDy=0;entryPerimeter=0;" parent="7mek623oFP9vRKAEX3To-51" edge="1">
          <mxGeometry width="50" height="50" relative="1" as="geometry">
            <mxPoint x="90" y="20" as="sourcePoint" />
            <mxPoint y="21" as="targetPoint" />
          </mxGeometry>
        </mxCell>
        <mxCell id="7mek623oFP9vRKAEX3To-53" value="out_q0[0:11]" style="text;html=1;align=center;verticalAlign=middle;resizable=0;points=[];autosize=1;strokeColor=none;fillColor=none;" parent="7mek623oFP9vRKAEX3To-51" vertex="1">
          <mxGeometry x="15" width="90" height="30" as="geometry" />
        </mxCell>
        <mxCell id="-atE9gH2WMRQZiepeEqc-1" value="" style="group" parent="1" vertex="1" connectable="0">
          <mxGeometry x="240" y="570" width="105" height="30" as="geometry" />
        </mxCell>
        <mxCell id="-atE9gH2WMRQZiepeEqc-2" value="" style="endArrow=classic;html=1;rounded=0;exitX=0.002;exitY=0.509;exitDx=0;exitDy=0;exitPerimeter=0;entryX=1.004;entryY=0.697;entryDx=0;entryDy=0;entryPerimeter=0;" parent="-atE9gH2WMRQZiepeEqc-1" edge="1">
          <mxGeometry width="50" height="50" relative="1" as="geometry">
            <mxPoint x="90" y="20" as="sourcePoint" />
            <mxPoint y="21" as="targetPoint" />
          </mxGeometry>
        </mxCell>
        <mxCell id="-atE9gH2WMRQZiepeEqc-3" value="out_q1[0:11]" style="text;html=1;align=center;verticalAlign=middle;resizable=0;points=[];autosize=1;strokeColor=none;fillColor=none;" parent="-atE9gH2WMRQZiepeEqc-1" vertex="1">
          <mxGeometry x="15" width="90" height="30" as="geometry" />
        </mxCell>
        <mxCell id="-atE9gH2WMRQZiepeEqc-4" value="" style="group" parent="1" vertex="1" connectable="0">
          <mxGeometry x="240" y="590" width="105" height="30" as="geometry" />
        </mxCell>
        <mxCell id="-atE9gH2WMRQZiepeEqc-5" value="" style="endArrow=classic;html=1;rounded=0;exitX=0.002;exitY=0.509;exitDx=0;exitDy=0;exitPerimeter=0;entryX=1.004;entryY=0.697;entryDx=0;entryDy=0;entryPerimeter=0;" parent="-atE9gH2WMRQZiepeEqc-4" edge="1">
          <mxGeometry width="50" height="50" relative="1" as="geometry">
            <mxPoint x="90" y="20" as="sourcePoint" />
            <mxPoint y="21" as="targetPoint" />
          </mxGeometry>
        </mxCell>
        <mxCell id="-atE9gH2WMRQZiepeEqc-6" value="out_q2[0:11]" style="text;html=1;align=center;verticalAlign=middle;resizable=0;points=[];autosize=1;strokeColor=none;fillColor=none;" parent="-atE9gH2WMRQZiepeEqc-4" vertex="1">
          <mxGeometry x="15" width="90" height="30" as="geometry" />
        </mxCell>
        <mxCell id="-atE9gH2WMRQZiepeEqc-7" value="" style="group" parent="1" vertex="1" connectable="0">
          <mxGeometry x="240" y="610" width="105" height="110" as="geometry" />
        </mxCell>
        <mxCell id="-atE9gH2WMRQZiepeEqc-8" value="" style="endArrow=classic;html=1;rounded=0;exitX=0.002;exitY=0.509;exitDx=0;exitDy=0;exitPerimeter=0;entryX=1.004;entryY=0.697;entryDx=0;entryDy=0;entryPerimeter=0;" parent="-atE9gH2WMRQZiepeEqc-7" edge="1">
          <mxGeometry width="50" height="50" relative="1" as="geometry">
            <mxPoint x="90" y="20" as="sourcePoint" />
            <mxPoint y="21" as="targetPoint" />
          </mxGeometry>
        </mxCell>
        <mxCell id="-atE9gH2WMRQZiepeEqc-9" value="out_q3[0:11]" style="text;html=1;align=center;verticalAlign=middle;resizable=0;points=[];autosize=1;strokeColor=none;fillColor=none;" parent="-atE9gH2WMRQZiepeEqc-7" vertex="1">
          <mxGeometry x="15" width="90" height="30" as="geometry" />
        </mxCell>
        <mxCell id="-atE9gH2WMRQZiepeEqc-10" value="" style="group" parent="-atE9gH2WMRQZiepeEqc-7" vertex="1" connectable="0">
          <mxGeometry y="20" width="105" height="30" as="geometry" />
        </mxCell>
        <mxCell id="-atE9gH2WMRQZiepeEqc-11" value="" style="endArrow=classic;html=1;rounded=0;exitX=0.002;exitY=0.509;exitDx=0;exitDy=0;exitPerimeter=0;entryX=1.004;entryY=0.697;entryDx=0;entryDy=0;entryPerimeter=0;" parent="-atE9gH2WMRQZiepeEqc-10" edge="1">
          <mxGeometry width="50" height="50" relative="1" as="geometry">
            <mxPoint x="90" y="20" as="sourcePoint" />
            <mxPoint y="21" as="targetPoint" />
          </mxGeometry>
        </mxCell>
        <mxCell id="-atE9gH2WMRQZiepeEqc-12" value="out_q4[0:11]" style="text;html=1;align=center;verticalAlign=middle;resizable=0;points=[];autosize=1;strokeColor=none;fillColor=none;" parent="-atE9gH2WMRQZiepeEqc-10" vertex="1">
          <mxGeometry x="15" width="90" height="30" as="geometry" />
        </mxCell>
        <mxCell id="-atE9gH2WMRQZiepeEqc-13" value="" style="group" parent="-atE9gH2WMRQZiepeEqc-7" vertex="1" connectable="0">
          <mxGeometry y="40" width="105" height="30" as="geometry" />
        </mxCell>
        <mxCell id="-atE9gH2WMRQZiepeEqc-14" value="" style="endArrow=classic;html=1;rounded=0;exitX=0.002;exitY=0.509;exitDx=0;exitDy=0;exitPerimeter=0;entryX=1.004;entryY=0.697;entryDx=0;entryDy=0;entryPerimeter=0;" parent="-atE9gH2WMRQZiepeEqc-13" edge="1">
          <mxGeometry width="50" height="50" relative="1" as="geometry">
            <mxPoint x="90" y="20" as="sourcePoint" />
            <mxPoint y="21" as="targetPoint" />
          </mxGeometry>
        </mxCell>
        <mxCell id="-atE9gH2WMRQZiepeEqc-15" value="out_q5[0:11]" style="text;html=1;align=center;verticalAlign=middle;resizable=0;points=[];autosize=1;strokeColor=none;fillColor=none;" parent="-atE9gH2WMRQZiepeEqc-13" vertex="1">
          <mxGeometry x="15" width="90" height="30" as="geometry" />
        </mxCell>
        <mxCell id="-atE9gH2WMRQZiepeEqc-16" value="" style="group" parent="-atE9gH2WMRQZiepeEqc-7" vertex="1" connectable="0">
          <mxGeometry y="60" width="105" height="30" as="geometry" />
        </mxCell>
        <mxCell id="-atE9gH2WMRQZiepeEqc-17" value="" style="endArrow=classic;html=1;rounded=0;exitX=0.002;exitY=0.509;exitDx=0;exitDy=0;exitPerimeter=0;entryX=1.004;entryY=0.697;entryDx=0;entryDy=0;entryPerimeter=0;" parent="-atE9gH2WMRQZiepeEqc-16" edge="1">
          <mxGeometry width="50" height="50" relative="1" as="geometry">
            <mxPoint x="90" y="20" as="sourcePoint" />
            <mxPoint y="21" as="targetPoint" />
          </mxGeometry>
        </mxCell>
        <mxCell id="-atE9gH2WMRQZiepeEqc-18" value="out_q6[0:11]" style="text;html=1;align=center;verticalAlign=middle;resizable=0;points=[];autosize=1;strokeColor=none;fillColor=none;" parent="-atE9gH2WMRQZiepeEqc-16" vertex="1">
          <mxGeometry x="15" width="90" height="30" as="geometry" />
        </mxCell>
        <mxCell id="-atE9gH2WMRQZiepeEqc-19" value="" style="group" parent="-atE9gH2WMRQZiepeEqc-7" vertex="1" connectable="0">
          <mxGeometry y="80" width="105" height="30" as="geometry" />
        </mxCell>
        <mxCell id="-atE9gH2WMRQZiepeEqc-20" value="" style="endArrow=classic;html=1;rounded=0;exitX=0.002;exitY=0.509;exitDx=0;exitDy=0;exitPerimeter=0;entryX=1.004;entryY=0.697;entryDx=0;entryDy=0;entryPerimeter=0;" parent="-atE9gH2WMRQZiepeEqc-19" edge="1">
          <mxGeometry width="50" height="50" relative="1" as="geometry">
            <mxPoint x="90" y="20" as="sourcePoint" />
            <mxPoint y="21" as="targetPoint" />
          </mxGeometry>
        </mxCell>
        <mxCell id="-atE9gH2WMRQZiepeEqc-21" value="out_q7[0:11]" style="text;html=1;align=center;verticalAlign=middle;resizable=0;points=[];autosize=1;strokeColor=none;fillColor=none;" parent="-atE9gH2WMRQZiepeEqc-19" vertex="1">
          <mxGeometry x="15" width="90" height="30" as="geometry" />
        </mxCell>
        <mxCell id="-atE9gH2WMRQZiepeEqc-37" value="" style="group" parent="1" vertex="1" connectable="0">
          <mxGeometry x="245" y="400" width="100" height="30" as="geometry" />
        </mxCell>
        <mxCell id="7mek623oFP9vRKAEX3To-25" value="out_r0[0:11]" style="text;html=1;align=center;verticalAlign=middle;resizable=0;points=[];autosize=1;strokeColor=none;fillColor=none;" parent="-atE9gH2WMRQZiepeEqc-37" vertex="1">
          <mxGeometry x="10" width="90" height="30" as="geometry" />
        </mxCell>
        <mxCell id="7mek623oFP9vRKAEX3To-49" value="" style="endArrow=classic;html=1;rounded=0;exitX=0.002;exitY=0.509;exitDx=0;exitDy=0;exitPerimeter=0;entryX=1.004;entryY=0.697;entryDx=0;entryDy=0;entryPerimeter=0;" parent="-atE9gH2WMRQZiepeEqc-37" edge="1">
          <mxGeometry width="50" height="50" relative="1" as="geometry">
            <mxPoint x="90" y="24" as="sourcePoint" />
            <mxPoint y="25" as="targetPoint" />
          </mxGeometry>
        </mxCell>
        <mxCell id="-atE9gH2WMRQZiepeEqc-38" value="" style="group" parent="1" vertex="1" connectable="0">
          <mxGeometry x="245" y="460" width="100" height="30" as="geometry" />
        </mxCell>
        <mxCell id="-atE9gH2WMRQZiepeEqc-39" value="out_r2[0:11]" style="text;html=1;align=center;verticalAlign=middle;resizable=0;points=[];autosize=1;strokeColor=none;fillColor=none;" parent="-atE9gH2WMRQZiepeEqc-38" vertex="1">
          <mxGeometry x="10" width="90" height="30" as="geometry" />
        </mxCell>
        <mxCell id="-atE9gH2WMRQZiepeEqc-40" value="" style="endArrow=classic;html=1;rounded=0;exitX=0.002;exitY=0.509;exitDx=0;exitDy=0;exitPerimeter=0;entryX=1.004;entryY=0.697;entryDx=0;entryDy=0;entryPerimeter=0;" parent="-atE9gH2WMRQZiepeEqc-38" edge="1">
          <mxGeometry width="50" height="50" relative="1" as="geometry">
            <mxPoint x="90" y="24" as="sourcePoint" />
            <mxPoint y="25" as="targetPoint" />
          </mxGeometry>
        </mxCell>
        <mxCell id="-atE9gH2WMRQZiepeEqc-41" value="" style="group" parent="1" vertex="1" connectable="0">
          <mxGeometry x="240" y="490" width="100" height="30" as="geometry" />
        </mxCell>
        <mxCell id="-atE9gH2WMRQZiepeEqc-42" value="out_r3[0:11]" style="text;html=1;align=center;verticalAlign=middle;resizable=0;points=[];autosize=1;strokeColor=none;fillColor=none;" parent="-atE9gH2WMRQZiepeEqc-41" vertex="1">
          <mxGeometry x="10" width="90" height="30" as="geometry" />
        </mxCell>
        <mxCell id="-atE9gH2WMRQZiepeEqc-43" value="" style="endArrow=classic;html=1;rounded=0;exitX=0.002;exitY=0.509;exitDx=0;exitDy=0;exitPerimeter=0;entryX=1.004;entryY=0.697;entryDx=0;entryDy=0;entryPerimeter=0;" parent="-atE9gH2WMRQZiepeEqc-41" edge="1">
          <mxGeometry width="50" height="50" relative="1" as="geometry">
            <mxPoint x="90" y="24" as="sourcePoint" />
            <mxPoint y="25" as="targetPoint" />
          </mxGeometry>
        </mxCell>
        <mxCell id="JOhl46XAyu-Ho14lBobh-1" value="in.dat" style="whiteSpace=wrap;html=1;aspect=fixed;" vertex="1" parent="1">
          <mxGeometry x="-240" y="210" width="80" height="80" as="geometry" />
        </mxCell>
        <mxCell id="JOhl46XAyu-Ho14lBobh-2" value="" style="rounded=0;whiteSpace=wrap;html=1;" vertex="1" parent="1">
          <mxGeometry x="-260" y="310" width="460" height="320" as="geometry" />
        </mxCell>
        <mxCell id="JOhl46XAyu-Ho14lBobh-3" value="Sequencer" style="rounded=0;whiteSpace=wrap;html=1;" vertex="1" parent="1">
          <mxGeometry x="-220" y="370" width="120" height="60" as="geometry" />
        </mxCell>
        <mxCell id="JOhl46XAyu-Ho14lBobh-4" value="Driver" style="rounded=0;whiteSpace=wrap;html=1;" vertex="1" parent="1">
          <mxGeometry x="-220" y="470" width="120" height="60" as="geometry" />
        </mxCell>
        <mxCell id="JOhl46XAyu-Ho14lBobh-7" value="Driver" style="rounded=0;whiteSpace=wrap;html=1;" vertex="1" parent="1">
          <mxGeometry x="-220" y="555" width="120" height="60" as="geometry" />
        </mxCell>
        <mxCell id="JOhl46XAyu-Ho14lBobh-8" value="Moniter" style="rounded=0;whiteSpace=wrap;html=1;" vertex="1" parent="1">
          <mxGeometry x="-20" y="370" width="120" height="60" as="geometry" />
        </mxCell>
        <mxCell id="JOhl46XAyu-Ho14lBobh-9" value="Driver" style="rounded=0;whiteSpace=wrap;html=1;" vertex="1" parent="1">
          <mxGeometry x="-10" y="550" width="120" height="60" as="geometry" />
        </mxCell>
        <mxCell id="JOhl46XAyu-Ho14lBobh-10" value="" style="shape=flexArrow;endArrow=classic;html=1;rounded=0;width=8.571428571428571;endSize=11.642857142857144;exitX=1;exitY=0.908;exitDx=0;exitDy=0;exitPerimeter=0;" edge="1" parent="1" source="7mek623oFP9vRKAEX3To-2">
          <mxGeometry width="50" height="50" relative="1" as="geometry">
            <mxPoint x="100" y="640" as="sourcePoint" />
            <mxPoint x="30" y="720" as="targetPoint" />
          </mxGeometry>
        </mxCell>
      </root>
    </mxGraphModel>
  </diagram>
</mxfile>
